<?xml version="1.0" encoding="UTF-8" standalone="no"?>
<svg
   width="60"
   height="60"
   viewBox="0 0 15 15"
   version="1.1"
   id="svg6307"
   sodipodi:docname="Civic.svg"
   inkscape:version="1.2.2 (b0a84865, 2022-12-01)"
   xmlns:inkscape="http://www.inkscape.org/namespaces/inkscape"
   xmlns:sodipodi="http://sodipodi.sourceforge.net/DTD/sodipodi-0.dtd"
   xmlns="http://www.w3.org/2000/svg"
   xmlns:svg="http://www.w3.org/2000/svg">
  <defs
     id="defs6311" />
  <sodipodi:namedview
     id="namedview6309"
     pagecolor="#ffffff"
     bordercolor="#999999"
     borderopacity="1"
     inkscape:showpageshadow="0"
     inkscape:pageopacity="0"
     inkscape:pagecheckerboard="0"
     inkscape:deskcolor="#d1d1d1"
     showgrid="false"
     inkscape:zoom="15.733333"
     inkscape:cx="5.4661017"
     inkscape:cy="7.5"
     inkscape:window-width="1309"
     inkscape:window-height="456"
     inkscape:window-x="0"
     inkscape:window-y="0"
     inkscape:window-maximized="0"
     inkscape:current-layer="svg6307" />
  <path
     d="M2 13.748c0 .138.112.25.25.25h3.749v-3h3v3h3.749a.25.25 0 0 0 .25-.25v-5.75H2v5.75zm11.93-7.17-.932-.82V2a1 1 0 1 0-2 0v2L7.681 1.09a.25.25 0 0 0-.353-.011l-.011.011-6.25 5.463a.25.25 0 0 0 .18.42L3 7h10.747a.25.25 0 0 0 .183-.421z"
     id="path6305"
     style="fill:#9eb9f3;fill-opacity:1" />
</svg>
