<?xml version="1.0" encoding="UTF-8" standalone="no"?>
<svg
   width="60"
   height="60"
   viewBox="0 0 15 15"
   version="1.1"
   id="svg134"
   sodipodi:docname="Commercial.svg"
   inkscape:version="1.2.2 (b0a84865, 2022-12-01)"
   xmlns:inkscape="http://www.inkscape.org/namespaces/inkscape"
   xmlns:sodipodi="http://sodipodi.sourceforge.net/DTD/sodipodi-0.dtd"
   xmlns="http://www.w3.org/2000/svg"
   xmlns:svg="http://www.w3.org/2000/svg">
  <defs
     id="defs138" />
  <sodipodi:namedview
     id="namedview136"
     pagecolor="#ffffff"
     bordercolor="#999999"
     borderopacity="1"
     inkscape:showpageshadow="0"
     inkscape:pageopacity="0"
     inkscape:pagecheckerboard="0"
     inkscape:deskcolor="#d1d1d1"
     showgrid="false"
     inkscape:zoom="15.733333"
     inkscape:cx="5.4661017"
     inkscape:cy="7.5"
     inkscape:window-width="1309"
     inkscape:window-height="456"
     inkscape:window-x="0"
     inkscape:window-y="0"
     inkscape:window-maximized="0"
     inkscape:current-layer="svg134" />
  <path
     d="M13.33 5H11.5l-.39-2.33A2 2 0 0 0 9.7 1.18 3.76 3.76 0 0 0 8.62 1H6.38a3.76 3.76 0 0 0-1.08.18 2 2 0 0 0-1.41 1.49L3.5 5H1.67a.5.5 0 0 0-.48.65l1.88 6.3A1.5 1.5 0 0 0 4.5 13h6a1.5 1.5 0 0 0 1.42-1.05l1.88-6.3a.5.5 0 0 0-.47-.65zM4.52 5l.36-2.17a.91.91 0 0 1 .74-.7c.246-.078.502-.121.76-.13h2.24c.261.008.52.051.77.13a.91.91 0 0 1 .74.7L10.48 5h-6z"
     id="path132"
     style="fill:#ff9955" />
</svg>
