<?xml version="1.0" encoding="UTF-8" standalone="no"?>
<svg
   width="60"
   height="60"
   viewBox="0 0 15 15"
   version="1.1"
   id="svg421"
   sodipodi:docname="Education.svg"
   inkscape:version="1.2.2 (b0a84865, 2022-12-01)"
   xmlns:inkscape="http://www.inkscape.org/namespaces/inkscape"
   xmlns:sodipodi="http://sodipodi.sourceforge.net/DTD/sodipodi-0.dtd"
   xmlns="http://www.w3.org/2000/svg"
   xmlns:svg="http://www.w3.org/2000/svg">
  <defs
     id="defs425" />
  <sodipodi:namedview
     id="namedview423"
     pagecolor="#ffffff"
     bordercolor="#999999"
     borderopacity="1"
     inkscape:showpageshadow="0"
     inkscape:pageopacity="0"
     inkscape:pagecheckerboard="0"
     inkscape:deskcolor="#d1d1d1"
     showgrid="false"
     inkscape:zoom="15.733333"
     inkscape:cx="3.4957628"
     inkscape:cy="7.5000002"
     inkscape:window-width="1309"
     inkscape:window-height="456"
     inkscape:window-x="389"
     inkscape:window-y="325"
     inkscape:window-maximized="0"
     inkscape:current-layer="svg421" />
  <path
     d="M7.5 1 0 4.5l2 .9v1.7c-.6.2-1 .8-1 1.4s.4 1.2 1 1.4v.1l-.9 2.1C.8 13 1 14 2.5 14s1.7-1 1.4-1.9L3 10c.6-.3 1-.8 1-1.5s-.4-1.2-1-1.4V5.9L7.5 8 15 4.5 7.5 1zm4.4 6.5-4.5 2L5 8.4v.1c0 .7-.3 1.3-.8 1.8l.6 1.4v.1c.1.4.2.8.1 1.2.7.3 1.5.5 2.5.5 3.3 0 4.5-2 4.5-3v-3z"
     id="path419"
     style="fill:#fe88b1;fill-opacity:1" />
</svg>
