<?xml version="1.0" encoding="UTF-8" standalone="no"?>
<svg
   width="60"
   height="60"
   viewBox="0 0 15 15"
   version="1.1"
   id="svg550"
   sodipodi:docname="Entertainment.svg"
   inkscape:version="1.2.2 (b0a84865, 2022-12-01)"
   xmlns:inkscape="http://www.inkscape.org/namespaces/inkscape"
   xmlns:sodipodi="http://sodipodi.sourceforge.net/DTD/sodipodi-0.dtd"
   xmlns="http://www.w3.org/2000/svg"
   xmlns:svg="http://www.w3.org/2000/svg">
  <defs
     id="defs554" />
  <sodipodi:namedview
     id="namedview552"
     pagecolor="#ffffff"
     bordercolor="#999999"
     borderopacity="1"
     inkscape:showpageshadow="0"
     inkscape:pageopacity="0"
     inkscape:pagecheckerboard="0"
     inkscape:deskcolor="#d1d1d1"
     showgrid="false"
     inkscape:zoom="15.733333"
     inkscape:cx="5.4661017"
     inkscape:cy="7.5"
     inkscape:window-width="1309"
     inkscape:window-height="456"
     inkscape:window-x="0"
     inkscape:window-y="0"
     inkscape:window-maximized="0"
     inkscape:current-layer="svg550" />
  <path
     d="M14 7.5v2a.5.5 0 0 1-1 0s.06-.5-1-.5h-1v2.5a.5.5 0 0 1-.5.5h-8a.5.5 0 0 1-.5-.5v-4a.5.5 0 0 1 .5-.5h8a.5.5 0 0 1 .5.5V8h1c1.06 0 1-.5 1-.5a.5.5 0 0 1 1 0zM4 3a2 2 0 1 0 0 4 2 2 0 0 0 0-4zm0 3a1 1 0 1 1 0-2 1 1 0 0 1 0 2zm4.5-4a2.5 2.5 0 1 0 0 5 2.5 2.5 0 0 0 0-5zm0 4a1.5 1.5 0 1 1 0-3 1.5 1.5 0 0 1 0 3z"
     id="path548"
     style="fill:#8787de" />
</svg>
