<?xml version="1.0" encoding="UTF-8" standalone="no"?>
<svg
   width="60"
   height="60"
   viewBox="0 0 15 15"
   version="1.1"
   id="svg3325"
   sodipodi:docname="Sustenance.svg"
   inkscape:version="1.2.2 (b0a84865, 2022-12-01)"
   xmlns:inkscape="http://www.inkscape.org/namespaces/inkscape"
   xmlns:sodipodi="http://sodipodi.sourceforge.net/DTD/sodipodi-0.dtd"
   xmlns="http://www.w3.org/2000/svg"
   xmlns:svg="http://www.w3.org/2000/svg">
  <defs
     id="defs3329" />
  <sodipodi:namedview
     id="namedview3327"
     pagecolor="#ffffff"
     bordercolor="#999999"
     borderopacity="1"
     inkscape:showpageshadow="0"
     inkscape:pageopacity="0"
     inkscape:pagecheckerboard="0"
     inkscape:deskcolor="#d1d1d1"
     showgrid="false"
     inkscape:zoom="15.733333"
     inkscape:cx="5.6885593"
     inkscape:cy="8.2944915"
     inkscape:window-width="1346"
     inkscape:window-height="719"
     inkscape:window-x="72"
     inkscape:window-y="370"
     inkscape:window-maximized="0"
     inkscape:current-layer="svg3325" />
  <path
     d="M9.428 10.429a.269.269 0 0 1-.074-.18A.25.25 0 0 1 9.6 10h1.447a.25.25 0 0 0 .25-.25.258.258 0 0 0-.079-.179L9.07 7.419a.3.3 0 0 1-.063-.17.249.249 0 0 1 .25-.249H10.4a.251.251 0 0 0 .25-.251.247.247 0 0 0-.077-.178L8.432 4.434l-.014-.014a.262.262 0 0 1-.066-.17A.25.25 0 0 1 8.6 4h.866a.25.25 0 0 0 .25-.25.246.246 0 0 0-.068-.164h.006L7.7 1.238a.253.253 0 0 0-.042-.044.249.249 0 0 0-.158-.055.249.249 0 0 0-.158.055.253.253 0 0 0-.042.044L5.352 3.586a.246.246 0 0 0-.068.164.25.25 0 0 0 .25.25H6.4a.241.241 0 0 1 .184.42l-.014.014-2.139 2.137a.247.247 0 0 0-.077.178A.251.251 0 0 0 4.6 7h1.145a.249.249 0 0 1 .25.249.3.3 0 0 1-.063.17l-2.15 2.152a.258.258 0 0 0-.082.179.25.25 0 0 0 .25.25H5.4a.25.25 0 0 1 .248.249.269.269 0 0 1-.074.18l-2.14 2.132-.009.009a.248.248 0 0 0 0 .351.256.256 0 0 0 .18.079H7v1l1-.008V13h3.391a.263.263 0 0 0 .26-.254.248.248 0 0 0-.071-.177Z"
     id="path3323"
     style="fill:#80ba5a;fill-opacity:1" />
</svg>
