<?xml version="1.0" encoding="UTF-8" standalone="no"?>
<svg
   width="15"
   height="15"
   version="1.1"
   id="svg134"
   sodipodi:docname="Tourism.svg"
   inkscape:version="1.2.2 (b0a84865, 2022-12-01)"
   xmlns:inkscape="http://www.inkscape.org/namespaces/inkscape"
   xmlns:sodipodi="http://sodipodi.sourceforge.net/DTD/sodipodi-0.dtd"
   xmlns="http://www.w3.org/2000/svg"
   xmlns:svg="http://www.w3.org/2000/svg">
  <defs
     id="defs138" />
  <sodipodi:namedview
     id="namedview136"
     pagecolor="#ffffff"
     bordercolor="#999999"
     borderopacity="1"
     inkscape:showpageshadow="0"
     inkscape:pageopacity="0"
     inkscape:pagecheckerboard="0"
     inkscape:deskcolor="#d1d1d1"
     showgrid="false"
     inkscape:zoom="15.733333"
     inkscape:cx="3.4957628"
     inkscape:cy="7.5000002"
     inkscape:window-width="1309"
     inkscape:window-height="456"
     inkscape:window-x="0"
     inkscape:window-y="0"
     inkscape:window-maximized="0"
     inkscape:current-layer="svg134" />
  <path
     d="m5.36 1.67-.01 4.02a4.452 4.452 0 0 0-1.1-.11c-.37.1-.74.63-1.1.76a4.202 4.202 0 0 1 2.21-4.67Zm2.41-.64L9.8 4.48a3.183 3.183 0 0 1 .84-.61c.36-.1.94.17 1.34.11a4.202 4.202 0 0 0-4.21-2.95ZM1 13h13c-.66-.66-2.64-1.11-4.34-1.33l-1.87-7c.52-.05 1.15.03 1.53 0l-2.11-3.6H7.2a6.174 6.174 0 0 0-.7.14 4.38 4.38 0 0 0-.64.22l-.01 4.15c.35-.17.84-.54 1.3-.74l1.8 6.74c-.58-.05-1.09-.08-1.45-.08C6.03 11.5 2 12 1 13Z"
     id="path132"
     style="fill:#f6cf71;fill-opacity:1" />
</svg>
