<?xml version="1.0" encoding="UTF-8" standalone="no"?>
<svg
   width="15"
   height="15"
   version="1.1"
   id="svg134"
   sodipodi:docname="Transportation.svg"
   inkscape:version="1.2.2 (b0a84865, 2022-12-01)"
   xmlns:inkscape="http://www.inkscape.org/namespaces/inkscape"
   xmlns:sodipodi="http://sodipodi.sourceforge.net/DTD/sodipodi-0.dtd"
   xmlns="http://www.w3.org/2000/svg"
   xmlns:svg="http://www.w3.org/2000/svg">
  <defs
     id="defs138" />
  <sodipodi:namedview
     id="namedview136"
     pagecolor="#ffffff"
     bordercolor="#999999"
     borderopacity="1"
     inkscape:showpageshadow="0"
     inkscape:pageopacity="0"
     inkscape:pagecheckerboard="0"
     inkscape:deskcolor="#d1d1d1"
     showgrid="false"
     inkscape:zoom="15.733333"
     inkscape:cx="3.4957628"
     inkscape:cy="7.5000002"
     inkscape:window-width="1309"
     inkscape:window-height="456"
     inkscape:window-x="0"
     inkscape:window-y="0"
     inkscape:window-maximized="0"
     inkscape:current-layer="svg134" />
  <path
     d="M2 3c0-1.1.9-2 2-2h7c1.1 0 2 .9 2 2v8c0 1-1 1-1 1v1c0 .55-.45 1-1 1s-1-.45-1-1v-1H5v1c0 .55-.45 1-1 1s-1-.45-1-1v-1c-1 0-1-1-1-1V3Zm1.5 1c-.28 0-.5.22-.5.5v3c0 .28.22.5.5.5h8c.28 0 .5-.22.5-.5v-3c0-.28-.22-.5-.5-.5h-8ZM4 9c-.55 0-1 .45-1 1s.45 1 1 1 1-.45 1-1-.45-1-1-1Zm7 0c-.55 0-1 .45-1 1s.45 1 1 1 1-.45 1-1-.45-1-1-1ZM4 2.5c0 .28.22.5.5.5h6c.28 0 .5-.22.5-.5s-.22-.5-.5-.5h-6c-.28 0-.5.22-.5.5Z"
     id="path132"
     style="fill:#c9db74;fill-opacity:1" />
</svg>
